<svg xmlns="http://www.w3.org/2000/svg" width="600" height="400" viewBox="0 0 600 400"><rect width="100%" height="100%" fill="#34d399"/><path fill="#ffffff" d="M136.95 184.11h4.27v26.03h-2.49q-.57 0-.96-.19t-.75-.64l-13.59-17.35q.11 1.19.11 2.2v15.98h-4.26v-26.03h2.53q.31 0 .54.03.22.03.39.11t.33.23q.17.15.36.41l13.65 17.42q-.06-.63-.09-1.24-.04-.61-.04-1.14zm17.53 7.27q2.06 0 3.74.67t2.88 1.89 1.84 2.99q.65 1.76.65 3.94 0 2.2-.65 3.96-.64 1.76-1.84 3.01-1.2 1.24-2.88 1.9-1.68.67-3.74.67-2.07 0-3.76-.67-1.69-.66-2.89-1.9-1.19-1.25-1.85-3.01t-.66-3.96q0-2.18.66-3.94.66-1.77 1.85-2.99 1.2-1.22 2.89-1.89t3.76-.67m0 15.61q2.31 0 3.42-1.55 1.1-1.55 1.1-4.53 0-2.99-1.1-4.56-1.11-1.56-3.42-1.56-2.34 0-3.46 1.57-1.13 1.58-1.13 4.55t1.13 4.52q1.12 1.56 3.46 1.56m24.79-13.32-1.01 1.6q-.18.29-.38.41-.19.11-.5.11-.32 0-.69-.18t-.86-.4q-.48-.23-1.1-.41-.63-.18-1.47-.18-1.32 0-2.06.56-.75.56-.75 1.46 0 .59.39 1 .38.4 1.02.71t1.45.55 1.65.53 1.65.66 1.45.93q.63.57 1.02 1.36t.39 1.91q0 1.33-.48 2.46-.48 1.12-1.41 1.94-.94.82-2.31 1.28-1.38.46-3.18.46-.96 0-1.86-.17-.91-.17-1.75-.48t-1.55-.72-1.25-.9l1.03-1.69q.19-.31.46-.47t.69-.16q.41 0 .78.23.37.24.86.51.48.27 1.14.5t1.66.23q.8 0 1.36-.19.57-.18.94-.49t.54-.71q.17-.41.17-.84 0-.65-.39-1.06-.38-.41-1.02-.72t-1.46-.55-1.67-.53q-.86-.29-1.68-.68-.82-.38-1.46-.98-.64-.59-1.02-1.45-.39-.87-.39-2.09 0-1.14.45-2.16.45-1.03 1.32-1.79.88-.77 2.18-1.23 1.31-.46 3.02-.46 1.9 0 3.47.63t2.61 1.66m15.82 0-1.01 1.6q-.18.29-.37.41-.2.11-.51.11-.32 0-.69-.18t-.86-.4q-.48-.23-1.1-.41t-1.47-.18q-1.31 0-2.06.56t-.75 1.46q0 .59.39 1 .39.4 1.03.71.63.31 1.44.55t1.65.53 1.65.66 1.45.93q.64.57 1.02 1.36.39.79.39 1.91 0 1.33-.48 2.46-.47 1.12-1.41 1.94t-2.31 1.28q-1.38.46-3.18.46-.95 0-1.86-.17t-1.75-.48-1.55-.72-1.25-.9l1.03-1.69q.2-.31.47-.47t.68-.16.78.23q.37.24.86.51.48.27 1.14.5t1.67.23q.79 0 1.36-.19.56-.18.93-.49t.54-.71q.17-.41.17-.84 0-.65-.38-1.06-.39-.41-1.03-.72t-1.46-.55-1.67-.53q-.86-.29-1.68-.68-.82-.38-1.45-.98-.64-.59-1.03-1.45-.39-.87-.39-2.09 0-1.14.45-2.16.45-1.03 1.33-1.79.87-.77 2.17-1.23 1.31-.46 3.02-.46 1.91 0 3.47.63 1.57.63 2.61 1.66m13.3 11.7v-3.11q-1.92.09-3.24.33-1.31.24-2.1.62t-1.14.88q-.34.51-.34 1.1 0 1.17.7 1.67.69.51 1.8.51 1.37 0 2.37-.5 1-.49 1.95-1.5m-9.39-9.7-.79-1.42q3.18-2.92 7.66-2.92 1.62 0 2.9.53t2.16 1.48q.88.94 1.34 2.26.46 1.31.46 2.88v11.66h-2.01q-.63 0-.98-.19-.34-.19-.54-.76l-.39-1.34q-.7.63-1.37 1.11t-1.39.8q-.72.33-1.53.5-.82.17-1.81.17-1.17 0-2.16-.32-.99-.31-1.71-.94t-1.12-1.57q-.4-.93-.4-2.18 0-.7.24-1.39.23-.69.76-1.32t1.38-1.19 2.08-.97q1.23-.42 2.87-.68t3.74-.31v-1.08q0-1.86-.79-2.75t-2.28-.89q-1.08 0-1.79.25-.72.25-1.26.57-.54.31-.98.57-.44.25-.98.25-.47 0-.79-.25-.32-.24-.52-.56m43.77-7.71h-11.55v7.22h9.11v3.73h-9.11v7.36h11.55v3.87h-16.41v-26.03h16.41zm15.18 16.71v-8.28q-.74-.92-1.64-1.3t-1.93-.38q-1 0-1.81.38t-1.39 1.14q-.58.77-.88 1.95-.31 1.18-.31 2.78 0 1.62.26 2.74.26 1.13.75 1.84t1.19 1.03q.7.31 1.56.31 1.39 0 2.36-.57.97-.58 1.84-1.64m1.73-13h2.71v24.5h-4.44v-8.37q-1.1 1.17-2.49 1.89-1.38.72-3.22.72-1.51 0-2.77-.63t-2.17-1.83q-.91-1.19-1.4-2.96-.5-1.76-.5-4.03 0-2.05.56-3.82.56-1.76 1.6-3.06 1.05-1.29 2.5-2.02 1.46-.73 3.28-.73 1.73 0 2.9.59 1.17.6 2.09 1.61l.23-1.05q.23-.81 1.12-.81m18.57 0h4.45v18.47h-2.72q-.88 0-1.12-.81l-.3-1.48q-1.14 1.16-2.5 1.87-1.37.71-3.23.71-1.51 0-2.67-.52-1.16-.51-1.95-1.44-.79-.94-1.2-2.23-.4-1.28-.4-2.83v-11.74h4.44v11.74q0 1.69.79 2.62.78.92 2.34.92 1.16 0 2.16-.51 1.01-.51 1.91-1.41zm8.98 0h4.47v18.47h-4.47zm5.08-5.38q0 .58-.23 1.08-.24.5-.62.88-.39.38-.91.6-.53.23-1.12.23-.58 0-1.09-.23-.51-.22-.89-.6t-.6-.88q-.23-.5-.23-1.08 0-.59.23-1.12.22-.52.6-.9.38-.37.89-.6.51-.22 1.09-.22.59 0 1.12.22.52.23.91.6.38.38.62.9.23.53.23 1.12m8.37 10.78v8.28q.76.92 1.65 1.3t1.93.38q1.01 0 1.82-.38t1.38-1.15q.56-.78.87-1.96t.31-2.78q0-1.62-.26-2.74-.27-1.13-.75-1.83-.49-.7-1.18-1.03-.69-.32-1.58-.32-1.38 0-2.35.58-.98.59-1.84 1.65m-.59-4.59.36 1.71q1.13-1.28 2.57-2.07t3.38-.79q1.52 0 2.77.63t2.16 1.83q.91 1.19 1.4 2.95.5 1.75.5 4.02 0 2.07-.56 3.84-.56 1.76-1.59 3.06-1.04 1.29-2.51 2.02-1.46.73-3.28.73-1.55 0-2.65-.48-1.1-.47-1.96-1.32v7.56h-4.45v-24.5h2.72q.87 0 1.14.81m20.1 6.3h8.39q0-.86-.24-1.63-.25-.76-.73-1.34-.49-.57-1.23-.91-.75-.33-1.74-.33-1.93 0-3.03 1.1-1.11 1.1-1.42 3.11m11.34 2.68H320.1q.11 1.43.51 2.46.39 1.04 1.04 1.71.65.68 1.54 1.01t1.97.33 1.86-.25q.79-.25 1.37-.56.59-.3 1.03-.56.44-.25.85-.25.56 0 .83.42l1.28 1.62q-.74.86-1.66 1.44-.92.59-1.91.94-1 .35-2.04.5-1.03.14-2.01.14-1.92 0-3.58-.64-1.65-.64-2.88-1.89-1.22-1.25-1.92-3.1-.71-1.84-.71-4.27 0-1.89.62-3.56.61-1.66 1.75-2.89 1.14-1.24 2.79-1.96t3.72-.72q1.74 0 3.22.56t2.54 1.63 1.66 2.63q.61 1.56.61 3.55 0 1.01-.22 1.36t-.83.35m16.63-2.68h8.39q0-.86-.24-1.63-.24-.76-.73-1.34-.49-.57-1.23-.91-.75-.33-1.74-.33-1.93 0-3.03 1.1-1.11 1.1-1.42 3.11m11.34 2.68h-11.43q.11 1.43.51 2.46.39 1.04 1.04 1.71.65.68 1.54 1.01t1.97.33 1.87-.25q.78-.25 1.36-.56.59-.3 1.03-.56.44-.25.85-.25.56 0 .83.42l1.28 1.62q-.74.86-1.66 1.44-.91.59-1.91.94t-2.04.5q-1.03.14-2 .14-1.93 0-3.59-.64-1.65-.64-2.88-1.89-1.22-1.25-1.92-3.1-.7-1.84-.7-4.27 0-1.89.61-3.56.61-1.66 1.75-2.89 1.15-1.24 2.79-1.96 1.65-.72 3.72-.72 1.75 0 3.22.56 1.48.56 2.54 1.63t1.67 2.63q.6 1.56.6 3.55 0 1.01-.22 1.36-.21.35-.83.35m8.82 8.68h-4.44v-18.47h2.72q.86 0 1.13.81l.29 1.37q.48-.54 1.02-.99.53-.45 1.13-.77.6-.33 1.3-.52.69-.19 1.52-.19 1.74 0 2.87.95 1.12.94 1.68 2.51.43-.92 1.08-1.58.65-.65 1.42-1.07.78-.41 1.65-.61t1.75-.2q1.53 0 2.72.47t2 1.37 1.23 2.2q.43 1.29.43 2.97v11.75h-4.45v-11.75q0-1.77-.77-2.66-.78-.89-2.27-.89-.69 0-1.27.23-.59.24-1.03.68t-.69 1.11q-.25.66-.25 1.53v11.75h-4.47v-11.75q0-1.86-.74-2.7-.75-.85-2.19-.85-.97 0-1.81.48-.84.47-1.56 1.3zm40.63-9.83h8.28l-3.17-8.66q-.23-.57-.48-1.36-.26-.8-.51-1.71-.23.91-.48 1.71-.26.81-.49 1.4zm6.61-16.2 10.22 26.03h-3.74q-.63 0-1.03-.32-.4-.31-.59-.78l-1.95-5.31h-10.78l-1.94 5.31q-.15.42-.56.76-.42.34-1.03.34h-3.78l10.24-26.03zm25.52 21.66 1.28 1.62q-1.23 1.44-2.76 2.11-1.54.68-3.18.84l-.24.9q1.7.39 2.37 1.07.68.67.68 1.61 0 .61-.32 1.1-.31.48-.9.83-.58.34-1.38.52-.81.18-1.78.18-.74 0-1.38-.1-.65-.1-1.26-.3l.39-1.38q.11-.42.52-.42.26 0 .56.14.31.13.88.13.6 0 .9-.22.29-.23.29-.55 0-.52-.65-.75-.64-.22-1.99-.42l.79-2.36q-1.51-.22-2.81-.95-1.3-.72-2.25-1.92t-1.5-2.85q-.55-1.66-.55-3.73 0-2.03.58-3.77.59-1.74 1.72-3.01 1.14-1.27 2.81-1.99t3.85-.72q2.07 0 3.63.67t2.8 1.91l-1.17 1.62q-.2.25-.39.39-.19.15-.55.15-.34 0-.66-.21-.33-.21-.78-.47t-1.07-.47q-.62-.2-1.54-.2-1.17 0-2.05.42t-1.47 1.22q-.58.79-.87 1.91-.29 1.13-.29 2.55 0 1.48.32 2.63.31 1.15.91 1.93.59.79 1.44 1.19.84.41 1.9.41 1.07 0 1.72-.27.66-.26 1.11-.57.45-.32.78-.58.34-.26.75-.26.54 0 .81.42m13.84-.4v-3.11q-1.92.09-3.24.33-1.31.24-2.1.62-.8.38-1.14.88-.34.51-.34 1.1 0 1.17.69 1.67.7.51 1.81.51 1.37 0 2.37-.5 1-.49 1.95-1.5m-9.39-9.7-.8-1.42q3.19-2.92 7.67-2.92 1.62 0 2.9.53t2.16 1.48q.88.94 1.34 2.26.46 1.31.46 2.88v11.66h-2.02q-.63 0-.97-.19t-.54-.76l-.39-1.34q-.71.63-1.37 1.11-.67.48-1.39.8-.72.33-1.54.5t-1.81.17q-1.17 0-2.16-.32-.99-.31-1.71-.94t-1.11-1.57q-.4-.93-.4-2.18 0-.7.24-1.39.23-.69.76-1.32t1.38-1.19q.84-.56 2.08-.97 1.23-.42 2.87-.68t3.74-.31v-1.08q0-1.86-.79-2.75t-2.29-.89q-1.08 0-1.79.25t-1.25.57q-.54.31-.98.57-.44.25-.98.25-.47 0-.79-.25-.33-.24-.52-.56m8.38-9.99q.54 0 .85-.3t.31-1.07h2.7q0 1.01-.28 1.83t-.77 1.4q-.48.59-1.16.9-.67.32-1.48.32-.65 0-1.21-.24-.56-.23-1.04-.5-.49-.27-.91-.51-.43-.23-.79-.23-.52 0-.81.31-.3.32-.3 1.08h-2.76q0-1.01.28-1.83t.79-1.41q.5-.58 1.18-.9.67-.33 1.46-.33.65 0 1.22.24.56.23 1.05.5t.9.5q.41.24.77.24m17.7 5.7q2.05 0 3.73.67 1.69.67 2.88 1.89 1.2 1.22 1.85 2.99.65 1.76.65 3.94 0 2.2-.65 3.96t-1.85 3.01q-1.19 1.24-2.88 1.9-1.68.67-3.73.67-2.07 0-3.76-.67-1.7-.66-2.89-1.9-1.2-1.25-1.86-3.01-.65-1.76-.65-3.96 0-2.18.65-3.94.66-1.77 1.86-2.99 1.19-1.22 2.89-1.89 1.69-.67 3.76-.67m0 15.61q2.3 0 3.41-1.55t1.11-4.53q0-2.99-1.11-4.56-1.11-1.56-3.41-1.56-2.34 0-3.47 1.57-1.12 1.58-1.12 4.55t1.12 4.52q1.13 1.56 3.47 1.56"/></svg>