<svg xmlns="http://www.w3.org/2000/svg" width="600" height="400" viewBox="0 0 600 400"><rect width="100%" height="100%" fill="#a78bfa"/><path fill="#ffffff" d="M135.525 187h-12.52v7.82h9.87v4.03h-9.87v7.98h12.52v4.19h-17.78v-28.2h17.78zm16.44 18.09v-8.97q-.82-.99-1.78-1.4-.97-.41-2.08-.41-1.09 0-1.97.41t-1.5 1.24-.96 2.1q-.33 1.28-.33 3.01 0 1.76.29 2.98.28 1.22.8 1.99.53.77 1.29 1.11t1.7.34q1.5 0 2.55-.62 1.06-.63 1.99-1.78m0-23.05h4.82v28.98h-2.95q-.95 0-1.21-.88l-.4-1.93q-1.21 1.39-2.78 2.24-1.57.86-3.66.86-1.64 0-3-.68-1.37-.68-2.35-1.98-.99-1.3-1.52-3.21-.54-1.91-.54-4.37 0-2.22.6-4.13.61-1.91 1.74-3.31 1.13-1.41 2.71-2.2t3.55-.79q1.68 0 2.87.53t2.12 1.42zm22 8.97h4.81v20.01h-2.94q-.96 0-1.21-.88l-.33-1.6q-1.23 1.25-2.71 2.02t-3.49.77q-1.64 0-2.9-.55-1.26-.56-2.11-1.57-.86-1.02-1.3-2.41-.44-1.4-.44-3.07v-12.72h4.82v12.72q0 1.83.85 2.83.84 1.01 2.54 1.01 1.25 0 2.34-.56 1.09-.55 2.07-1.53zm25.17 2.48-1.27 1.75q-.21.28-.41.43-.21.16-.6.16-.37 0-.72-.22-.35-.23-.84-.51t-1.16-.51q-.67-.22-1.67-.22-1.26 0-2.22.46-.96.45-1.59 1.31t-.94 2.08q-.32 1.22-.32 2.76 0 1.6.34 2.84.35 1.25.99 2.1t1.56 1.29 2.07.44 1.86-.29q.71-.28 1.2-.62t.85-.62q.36-.29.81-.29.58 0 .87.45l1.39 1.76q-.8.93-1.74 1.57-.93.63-1.94 1.01-1 .38-2.07.54-1.06.15-2.11.15-1.85 0-3.49-.69t-2.87-2.02q-1.23-1.32-1.94-3.24-.71-1.93-.71-4.38 0-2.21.63-4.09.64-1.88 1.87-3.25 1.22-1.38 3.04-2.16 1.81-.78 4.17-.78 2.24 0 3.93.72t3.03 2.07m13.77 12.36v-3.37q-2.09.1-3.51.36t-2.28.67-1.23.96q-.37.54-.37 1.19 0 1.27.75 1.81.75.55 1.96.55 1.48 0 2.56-.54 1.09-.54 2.12-1.63m-10.18-10.51-.86-1.54q3.45-3.16 8.31-3.16 1.75 0 3.14.58 1.38.57 2.34 1.6.95 1.02 1.45 2.44.5 1.43.5 3.12v12.64h-2.19q-.68 0-1.05-.2-.37-.21-.58-.83l-.43-1.45q-.76.69-1.48 1.2-.73.52-1.51.87t-1.66.54q-.89.18-1.96.18-1.27 0-2.34-.34-1.08-.34-1.86-1.02-.78-.69-1.2-1.7-.43-1.01-.43-2.36 0-.76.25-1.51t.83-1.43q.57-.69 1.49-1.29.92-.61 2.25-1.05 1.34-.45 3.11-.73 1.78-.29 4.06-.35v-1.17q0-2-.86-2.97-.86-.96-2.48-.96-1.17 0-1.94.27t-1.35.61q-.59.34-1.06.62-.48.27-1.07.27-.5 0-.85-.26-.36-.27-.57-.62m33.81 10.94 1.39 1.76q-1.33 1.56-3 2.29-1.66.73-3.44.9l-.25.98q1.83.43 2.56 1.16t.73 1.74q0 .67-.34 1.19-.34.53-.97.9-.64.37-1.5.57-.87.19-1.92.19-.8 0-1.51-.11-.7-.1-1.36-.32l.43-1.5q.12-.45.56-.45.28 0 .61.15t.95.15q.65 0 .97-.25.32-.24.32-.59 0-.57-.7-.81-.7-.25-2.17-.46l.86-2.55q-1.64-.24-3.04-1.03t-2.44-2.09q-1.03-1.29-1.63-3.09-.59-1.79-.59-4.03 0-2.21.63-4.09.64-1.88 1.87-3.25 1.22-1.38 3.04-2.16 1.81-.78 4.17-.78 2.24 0 3.93.72t3.03 2.07l-1.26 1.75q-.22.28-.42.43-.21.16-.6.16-.37 0-.72-.22-.35-.23-.84-.51t-1.16-.51q-.67-.22-1.67-.22-1.26 0-2.22.46-.95.45-1.59 1.31-.63.86-.94 2.08-.32 1.22-.32 2.76 0 1.6.34 2.84.35 1.25.99 2.1t1.56 1.29 2.07.44 1.86-.29q.71-.28 1.2-.62t.85-.62q.36-.29.81-.29.58 0 .87.45m15-.43v-3.37q-2.09.1-3.51.36t-2.28.67-1.23.96q-.37.54-.37 1.19 0 1.27.75 1.81.75.55 1.96.55 1.48 0 2.56-.54 1.09-.54 2.12-1.63m-10.18-10.51-.86-1.54q3.45-3.16 8.31-3.16 1.75 0 3.14.58 1.38.57 2.34 1.6.95 1.02 1.45 2.44.5 1.43.5 3.12v12.64h-2.19q-.68 0-1.05-.2-.37-.21-.58-.83l-.43-1.45q-.76.69-1.48 1.2-.73.52-1.51.87t-1.66.54q-.89.18-1.96.18-1.27 0-2.34-.34-1.08-.34-1.86-1.02-.78-.69-1.2-1.7-.43-1.01-.43-2.36 0-.76.25-1.51t.83-1.43q.57-.69 1.49-1.29.92-.61 2.25-1.05 1.34-.45 3.11-.73 1.78-.29 4.06-.35v-1.17q0-2-.86-2.97-.86-.96-2.48-.96-1.17 0-1.94.27t-1.35.61q-.59.34-1.06.62-.48.27-1.07.27-.5 0-.85-.26-.36-.27-.57-.62m9.09-10.82q.58 0 .91-.32t.33-1.16h2.93q0 1.09-.3 1.98-.3.88-.83 1.52-.53.63-1.26.97t-1.61.34q-.7 0-1.3-.25-.61-.25-1.14-.55-.52-.29-.98-.54-.46-.26-.85-.26-.56 0-.89.35-.32.34-.32 1.16h-2.98q0-1.1.3-1.98.3-.89.85-1.52.55-.64 1.28-.99t1.59-.35q.7 0 1.31.25.62.26 1.14.55.53.29.98.55.45.25.84.25m19.17 6.18q2.22 0 4.04.72t3.12 2.05 2 3.24.7 4.27q0 2.38-.7 4.29t-2 3.25q-1.3 1.35-3.12 2.07t-4.04.72q-2.25 0-4.08-.72t-3.13-2.07q-1.3-1.34-2.01-3.25t-.71-4.29q0-2.36.71-4.27t2.01-3.24 3.13-2.05 4.08-.72m0 16.91q2.49 0 3.69-1.68t1.2-4.91q0-3.24-1.2-4.94-1.2-1.69-3.69-1.69-2.54 0-3.76 1.7-1.22 1.71-1.22 4.93 0 3.21 1.22 4.9t3.76 1.69m27.84-10.75v8.97q.82 1 1.79 1.41.96.41 2.09.41 1.09 0 1.97-.41t1.49-1.25q.62-.84.95-2.12.33-1.27.33-3.01 0-1.75-.28-2.97-.29-1.22-.81-1.98-.53-.76-1.28-1.11t-1.71-.35q-1.5 0-2.55.63t-1.99 1.78m-.64-4.97.39 1.85q1.23-1.38 2.79-2.24t3.66-.86q1.64 0 3 .68 1.35.69 2.34 1.98.98 1.3 1.52 3.2.53 1.9.53 4.36 0 2.24-.6 4.15-.61 1.92-1.73 3.32t-2.71 2.19-3.56.79q-1.67 0-2.86-.51-1.19-.52-2.13-1.44v8.19h-4.82v-26.54h2.95q.94 0 1.23.88m28.55 13.96v-3.37q-2.09.1-3.51.36-1.43.26-2.29.67-.85.41-1.22.96-.37.54-.37 1.19 0 1.27.75 1.81.75.55 1.96.55 1.48 0 2.56-.54t2.12-1.63m-10.18-10.51-.86-1.54q3.45-3.16 8.31-3.16 1.75 0 3.14.58 1.38.57 2.34 1.6.95 1.02 1.45 2.44.5 1.43.5 3.12v12.64h-2.19q-.68 0-1.05-.2-.37-.21-.59-.83l-.43-1.45q-.76.69-1.48 1.2-.72.52-1.5.87t-1.67.54q-.88.18-1.96.18-1.26 0-2.34-.34-1.07-.34-1.85-1.02-.78-.69-1.21-1.7t-.43-2.36q0-.76.26-1.51.25-.75.83-1.43.57-.69 1.49-1.29.91-.61 2.25-1.05 1.34-.45 3.11-.73 1.77-.29 4.06-.35v-1.17q0-2-.86-2.97-.86-.96-2.48-.96-1.17 0-1.94.27t-1.35.61q-.59.34-1.07.62-.47.27-1.06.27-.51 0-.86-.26-.35-.27-.56-.62m23.65-3.12.29 2.26q.94-1.79 2.23-2.81 1.28-1.03 3.04-1.03 1.38 0 2.22.61l-.31 3.6q-.1.36-.28.5-.19.15-.5.15-.29 0-.87-.1-.57-.1-1.12-.1-.8 0-1.42.24-.63.23-1.13.67-.49.44-.87 1.06-.38.63-.71 1.43v12.32h-4.82v-20.01h2.83q.74 0 1.03.27.29.26.39.94m20.87 13.63v-3.37q-2.09.1-3.51.36-1.43.26-2.29.67-.85.41-1.22.96-.38.54-.38 1.19 0 1.27.76 1.81.75.55 1.96.55 1.48 0 2.56-.54t2.12-1.63m-10.18-10.51-.86-1.54q3.45-3.16 8.31-3.16 1.75 0 3.13.58 1.39.57 2.34 1.6.96 1.02 1.46 2.44.49 1.43.49 3.12v12.64h-2.18q-.68 0-1.05-.2-.37-.21-.59-.83l-.43-1.45q-.76.69-1.48 1.2-.72.52-1.5.87t-1.67.54q-.88.18-1.96.18-1.26 0-2.34-.34-1.07-.34-1.85-1.02-.78-.69-1.21-1.7t-.43-2.36q0-.76.26-1.51.25-.75.82-1.43.58-.69 1.5-1.29.91-.61 2.25-1.05 1.33-.45 3.11-.73 1.77-.29 4.06-.35v-1.17q0-2-.86-2.97-.86-.96-2.48-.96-1.17 0-1.94.27t-1.35.61q-.59.34-1.07.62-.48.27-1.06.27-.51 0-.86-.26-.35-.27-.56-.62m49.33-12.52v4.31h-8.5v23.89h-5.25v-23.89h-8.5v-4.31zm11.8 7.88q2.22 0 4.04.72 1.83.72 3.12 2.05 1.3 1.33 2 3.24.71 1.91.71 4.27 0 2.38-.71 4.29-.7 1.91-2 3.25-1.29 1.35-3.12 2.07-1.82.72-4.04.72-2.24 0-4.08-.72-1.83-.72-3.13-2.07-1.29-1.34-2.01-3.25-.71-1.91-.71-4.29 0-2.36.71-4.27.72-1.91 2.01-3.24 1.3-1.33 3.13-2.05 1.84-.72 4.08-.72m0 16.91q2.49 0 3.69-1.68t1.2-4.91q0-3.24-1.2-4.94-1.2-1.69-3.69-1.69-2.54 0-3.76 1.7-1.21 1.71-1.21 4.93 0 3.21 1.21 4.9 1.22 1.69 3.76 1.69m26.11-2.52v-8.97q-.82-.99-1.79-1.4-.96-.41-2.07-.41-1.09 0-1.97.41t-1.5 1.24q-.63.83-.96 2.1-.33 1.28-.33 3.01 0 1.76.28 2.98.29 1.22.81 1.99.53.77 1.29 1.11t1.7.34q1.5 0 2.55-.62 1.05-.63 1.99-1.78m0-23.05h4.82v28.98h-2.95q-.95 0-1.21-.88l-.41-1.93q-1.21 1.39-2.78 2.24-1.57.86-3.65.86-1.64 0-3.01-.68-1.36-.68-2.35-1.98-.98-1.3-1.52-3.21-.53-1.91-.53-4.37 0-2.22.6-4.13.61-1.91 1.74-3.31 1.13-1.41 2.71-2.2t3.55-.79q1.67 0 2.86.53t2.13 1.42zm18.43 8.66q2.22 0 4.04.72 1.83.72 3.12 2.05 1.3 1.33 2 3.24t.7 4.27q0 2.38-.7 4.29t-2 3.25q-1.29 1.35-3.12 2.07-1.82.72-4.04.72-2.25 0-4.08-.72t-3.13-2.07q-1.3-1.34-2.01-3.25t-.71-4.29q0-2.36.71-4.27t2.01-3.24 3.13-2.05 4.08-.72m0 16.91q2.49 0 3.69-1.68t1.2-4.91q0-3.24-1.2-4.94-1.2-1.69-3.69-1.69-2.54 0-3.76 1.7-1.22 1.71-1.22 4.93 0 3.21 1.22 4.9t3.76 1.69m26.85-14.43-1.09 1.73q-.2.32-.41.44-.22.13-.55.13-.35 0-.75-.2l-.93-.44q-.52-.24-1.2-.43-.67-.2-1.58-.2-1.43 0-2.24.61-.81.6-.81 1.57 0 .65.42 1.09t1.11.77q.7.33 1.57.59.88.27 1.79.58.9.31 1.78.71t1.57 1.01q.69.62 1.11 1.48.42.85.42 2.06 0 1.45-.51 2.66-.52 1.22-1.53 2.11-1.02.89-2.51 1.38-1.49.5-3.44.5-1.04 0-2.02-.18-.99-.19-1.89-.52-.91-.33-1.68-.78t-1.35-.98l1.11-1.83q.21-.33.5-.51.3-.17.75-.17.44 0 .84.25.4.26.93.55t1.24.55q.71.25 1.8.25.86 0 1.47-.21.62-.2 1.02-.53t.58-.77q.19-.44.19-.91 0-.7-.42-1.15t-1.11-.78-1.58-.59q-.89-.27-1.82-.58-.92-.31-1.81-.73t-1.58-1.06q-.69-.65-1.11-1.58-.42-.94-.42-2.27 0-1.22.49-2.34.49-1.11 1.43-1.94.95-.82 2.36-1.32t3.27-.5q2.06 0 3.76.68 1.7.69 2.83 1.8"/></svg>