<svg xmlns="http://www.w3.org/2000/svg" width="600" height="400" viewBox="0 0 600 400"><rect width="100%" height="100%" fill="#f87171"/><path fill="#ffffff" d="m147.845 178.7-1.94 3.68q-.35.61-.74.89-.39.27-.97.27-.61 0-1.32-.45t-1.7-1q-.98-.55-2.3-1t-3.12-.45q-1.62 0-2.84.39-1.22.4-2.05 1.09-.82.7-1.23 1.67-.4.97-.4 2.13 0 1.48.82 2.47.83.98 2.19 1.68 1.36.69 3.1 1.24 1.74.56 3.57 1.18t3.57 1.45 3.1 2.09 2.19 3.09q.83 1.82.83 4.43 0 2.85-.97 5.32-.98 2.48-2.85 4.33-1.87 1.84-4.56 2.9-2.7 1.05-6.18 1.05-2 0-3.94-.39-1.95-.39-3.73-1.11-1.78-.73-3.35-1.74-1.57-1.02-2.78-2.27l2.29-3.74q.29-.4.75-.68.46-.27.99-.27.72 0 1.56.59.84.6 2 1.32t2.71 1.32q1.56.59 3.73.59 3.34 0 5.16-1.58 1.83-1.58 1.83-4.54 0-1.65-.83-2.69-.82-1.05-2.19-1.76-1.36-.71-3.1-1.2t-3.54-1.07q-1.79-.58-3.53-1.4-1.74-.81-3.11-2.11-1.36-1.31-2.19-3.26-.82-1.96-.82-4.83 0-2.29.91-4.47.91-2.17 2.65-3.86 1.74-1.68 4.3-2.69 2.55-1.02 5.85-1.02 3.72 0 6.85 1.16t5.33 3.25m19.58 7.77q3.3 0 6.02 1.07 2.71 1.08 4.64 3.05 1.92 1.97 2.97 4.81 1.04 2.85 1.04 6.35 0 3.54-1.04 6.39-1.05 2.84-2.97 4.84-1.93 2-4.64 3.07-2.72 1.07-6.02 1.07-3.34 0-6.06-1.07-2.73-1.07-4.66-3.07t-2.98-4.84q-1.06-2.85-1.06-6.39 0-3.5 1.06-6.35 1.05-2.84 2.98-4.81t4.66-3.05q2.72-1.07 6.06-1.07m0 25.14q3.71 0 5.49-2.49 1.79-2.49 1.79-7.31 0-4.81-1.79-7.33-1.78-2.53-5.49-2.53-3.77 0-5.58 2.54-1.82 2.54-1.82 7.32 0 4.79 1.82 7.3 1.81 2.5 5.58 2.5m27.32-15.97v13.34q1.21 1.47 2.65 2.08t3.12.61q1.62 0 2.93-.61 1.3-.61 2.21-1.85.92-1.25 1.41-3.15t.49-4.48q0-2.61-.42-4.42t-1.2-2.95q-.78-1.13-1.9-1.65t-2.54-.52q-2.23 0-3.8.94-1.56.94-2.95 2.66m-.96-7.4.58 2.76q1.83-2.06 4.15-3.34t5.45-1.28q2.43 0 4.45 1.02 2.02 1.01 3.48 2.94t2.26 4.76.8 6.48q0 3.34-.9 6.18t-2.57 4.93q-1.66 2.09-4.03 3.26-2.36 1.17-5.29 1.17-2.49 0-4.26-.76-1.77-.77-3.16-2.14v12.18h-7.17v-39.46h4.38q1.39 0 1.83 1.3m42.46 20.76v-5.01q-3.11.14-5.22.53-2.12.4-3.4 1-1.27.61-1.82 1.43-.56.81-.56 1.76 0 1.89 1.12 2.7t2.92.81q2.2 0 3.81-.79 1.61-.8 3.15-2.43m-15.14-15.63-1.28-2.29q5.13-4.7 12.36-4.7 2.61 0 4.66.86 2.06.86 3.48 2.38 1.43 1.52 2.16 3.64.74 2.11.74 4.64v18.79h-3.24q-1.02 0-1.57-.3-.55-.31-.87-1.24l-.64-2.14q-1.13 1.01-2.2 1.78t-2.23 1.29-2.48.8q-1.32.27-2.92.27-1.88 0-3.48-.5-1.59-.51-2.75-1.53-1.16-1.01-1.8-2.52t-.64-3.51q0-1.13.38-2.25.37-1.11 1.23-2.13.86-1.01 2.22-1.91t3.35-1.57q1.98-.66 4.62-1.08t6.04-.51v-1.74q0-2.99-1.28-4.42-1.28-1.44-3.68-1.44-1.74 0-2.89.41-1.14.4-2.01.91t-1.59.91q-.71.41-1.58.41-.75 0-1.27-.39t-.84-.92m68.35-14.67-1.94 3.68q-.35.61-.74.89-.39.27-.97.27-.61 0-1.32-.45t-1.7-1-2.31-1q-1.31-.45-3.11-.45-1.63 0-2.84.39-1.22.4-2.05 1.09-.83.7-1.23 1.67-.41.97-.41 2.13 0 1.48.83 2.47.83.98 2.19 1.68 1.36.69 3.1 1.24 1.74.56 3.57 1.18t3.57 1.45 3.1 2.09 2.19 3.09q.82 1.82.82 4.43 0 2.85-.97 5.32-.97 2.48-2.84 4.33-1.87 1.84-4.57 2.9-2.69 1.05-6.17 1.05-2 0-3.95-.39-1.94-.39-3.72-1.11-1.79-.73-3.35-1.74-1.57-1.02-2.79-2.27l2.29-3.74q.29-.4.76-.68.46-.27.98-.27.73 0 1.57.59.84.6 2 1.32t2.71 1.32q1.55.59 3.73.59 3.33 0 5.16-1.58t1.83-4.54q0-1.65-.83-2.69-.83-1.05-2.19-1.76t-3.1-1.2-3.54-1.07-3.54-1.4q-1.74-.81-3.1-2.11-1.36-1.31-2.19-3.26-.83-1.96-.83-4.83 0-2.29.92-4.47.91-2.17 2.65-3.86 1.74-1.68 4.29-2.69 2.55-1.02 5.86-1.02 3.71 0 6.84 1.16 3.14 1.16 5.34 3.25m19.58 7.77q3.3 0 6.01 1.07 2.71 1.08 4.64 3.05t2.98 4.81q1.04 2.85 1.04 6.35 0 3.54-1.04 6.39-1.05 2.84-2.98 4.84t-4.64 3.07-6.01 1.07q-3.34 0-6.07-1.07-2.72-1.07-4.65-3.07t-2.99-4.84q-1.06-2.85-1.06-6.39 0-3.5 1.06-6.35 1.06-2.84 2.99-4.81t4.65-3.05q2.73-1.07 6.07-1.07m0 25.14q3.71 0 5.49-2.49t1.78-7.31q0-4.81-1.78-7.33-1.78-2.53-5.49-2.53-3.77 0-5.59 2.54-1.81 2.54-1.81 7.32 0 4.79 1.81 7.3 1.82 2.5 5.59 2.5m20.24-38.01h7.16v43.09h-7.16zm14.56 13.34h7.19v29.75h-7.19zm8.17-8.68q0 .93-.37 1.74-.38.82-1 1.43-.63.6-1.47.97-.84.36-1.8.36-.92 0-1.75-.36-.83-.37-1.44-.97-.61-.61-.97-1.43-.36-.81-.36-1.74 0-.95.36-1.79t.97-1.45 1.44-.97q.83-.37 1.75-.37.96 0 1.8.37.84.36 1.47.97.62.61 1 1.45.37.84.37 1.79m25 29.61v-13.34q-1.22-1.48-2.65-2.08-1.44-.61-3.09-.61-1.62 0-2.93.61-1.3.6-2.23 1.84-.93 1.23-1.42 3.13-.5 1.9-.5 4.48 0 2.61.42 4.42.42 1.82 1.21 2.96.78 1.15 1.91 1.65 1.13.51 2.52.51 2.24 0 3.8-.93 1.57-.93 2.96-2.64m0-34.27h7.16v43.09h-4.37q-1.43 0-1.8-1.31l-.61-2.87q-1.8 2.06-4.13 3.34-2.34 1.27-5.44 1.27-2.44 0-4.47-1.01t-3.49-2.94q-1.47-1.93-2.26-4.77-.8-2.85-.8-6.5 0-3.31.9-6.15t2.58-4.93 4.03-3.26q2.35-1.18 5.28-1.18 2.49 0 4.26.79 1.77.78 3.16 2.11zm29.96 35.4v-5.01q-3.1.14-5.22.53-2.12.4-3.39 1-1.28.61-1.83 1.43-.55.81-.55 1.76 0 1.89 1.11 2.7 1.12.81 2.92.81 2.2 0 3.81-.79 1.61-.8 3.15-2.43m-15.14-15.63-1.28-2.29q5.14-4.7 12.36-4.7 2.61 0 4.67.86t3.48 2.38 2.16 3.64q.74 2.11.74 4.64v18.79h-3.25q-1.02 0-1.57-.3-.55-.31-.87-1.24l-.63-2.14q-1.14 1.01-2.21 1.78t-2.23 1.29-2.48.8q-1.32.27-2.92.27-1.88 0-3.48-.5-1.59-.51-2.75-1.53-1.16-1.01-1.8-2.52t-.64-3.51q0-1.13.38-2.25.38-1.11 1.23-2.13.86-1.01 2.22-1.91t3.35-1.57q1.99-.66 4.63-1.08t6.03-.51v-1.74q0-2.99-1.28-4.42-1.27-1.44-3.68-1.44-1.74 0-2.89.41-1.14.4-2.01.91t-1.58.91q-.71.41-1.58.41-.76 0-1.28-.39t-.84-.92m13.49-19.08h6.96l-7.17 7.57q-.55.58-1.06.8-.5.22-1.32.22h-4.29l4.12-7.05q.44-.76 1.02-1.15t1.74-.39m21.69 14.44.43 3.37q1.39-2.67 3.31-4.19 1.91-1.53 4.52-1.53 2.06 0 3.31.9l-.47 5.37q-.14.52-.42.74-.27.22-.74.22-.43 0-1.29-.15-.85-.14-1.66-.14-1.19 0-2.12.34-.93.35-1.67 1-.74.66-1.3 1.58-.57.93-1.06 2.12v18.33h-7.16v-29.75h4.2q1.1 0 1.54.39.43.39.58 1.4m15.54-1.79h7.19v29.75h-7.19zm8.18-8.68q0 .93-.38 1.74-.37.82-1 1.43-.62.6-1.46.97-.84.36-1.8.36-.93 0-1.75-.36-.83-.37-1.44-.97-.61-.61-.97-1.43-.36-.81-.36-1.74 0-.95.36-1.79t.97-1.45 1.44-.97q.82-.37 1.75-.37.96 0 1.8.37.84.36 1.46.97.63.61 1 1.45.38.84.38 1.79m22.04 30.74v-5.01q-3.1.14-5.22.53-2.12.4-3.39 1-1.28.61-1.83 1.43-.55.81-.55 1.76 0 1.89 1.11 2.7 1.12.81 2.92.81 2.2 0 3.81-.79 1.61-.8 3.15-2.43m-15.14-15.63-1.27-2.29q5.13-4.7 12.35-4.7 2.61 0 4.67.86t3.48 2.38 2.16 3.64q.74 2.11.74 4.64v18.79h-3.25q-1.01 0-1.57-.3-.55-.31-.87-1.24l-.63-2.14q-1.13 1.01-2.21 1.78-1.07.77-2.23 1.29t-2.48.8q-1.32.27-2.91.27-1.89 0-3.48-.5-1.6-.51-2.76-1.53-1.16-1.01-1.8-2.52t-.64-3.51q0-1.13.38-2.25.38-1.11 1.23-2.13.86-1.01 2.22-1.91 1.37-.9 3.35-1.57 1.99-.66 4.63-1.08t6.03-.51v-1.74q0-2.99-1.28-4.42-1.27-1.44-3.68-1.44-1.74 0-2.89.41-1.14.4-2.01.91t-1.58.91q-.71.41-1.58.41-.76 0-1.28-.39t-.84-.92"/></svg>