<svg xmlns="http://www.w3.org/2000/svg" width="600" height="400" viewBox="0 0 600 400"><rect width="100%" height="100%" fill="#60a5fa"/><path fill="#ffffff" d="M141.04 184.33h5.94v31.81h-5.94v-13.9H126.1v13.9h-5.94v-31.81h5.94v13.68h14.94zm22.15 8.89q2.51 0 4.57.81t3.52 2.31 2.25 3.65q.8 2.16.8 4.82 0 2.68-.8 4.84-.79 2.16-2.25 3.67-1.46 1.52-3.52 2.34-2.06.81-4.57.81-2.53 0-4.59-.81-2.07-.82-3.53-2.34-1.47-1.51-2.27-3.67t-.8-4.84q0-2.66.8-4.82.8-2.15 2.27-3.65 1.46-1.5 3.53-2.31 2.06-.81 4.59-.81m0 19.07q2.82 0 4.17-1.89 1.36-1.89 1.36-5.55 0-3.65-1.36-5.56-1.35-1.92-4.17-1.92-2.86 0-4.23 1.93-1.38 1.92-1.38 5.55t1.38 5.54q1.37 1.9 4.23 1.9m20.09-17.36.33 2.55q1.06-2.02 2.51-3.17 1.45-1.16 3.43-1.16 1.56 0 2.51.68l-.35 4.07q-.11.4-.32.56-.21.17-.56.17-.33 0-.98-.11t-1.27-.11q-.9 0-1.6.26-.71.27-1.27.76-.56.5-.99 1.2t-.8 1.61v13.9h-5.44v-22.57h3.19q.84 0 1.17.3.33.29.44 1.06m19.14 21.56q-2.95 0-4.52-1.66t-1.57-4.59v-12.6h-2.31q-.44 0-.75-.29-.31-.28-.31-.86v-2.15l3.63-.6 1.14-6.16q.11-.44.42-.68t.79-.24h2.82v7.11h6.03v3.87h-6.03v12.23q0 1.06.52 1.65.51.59 1.42.59.5 0 .84-.12t.6-.25q.25-.13.45-.25t.39-.12q.25 0 .4.12t.33.36l1.63 2.64q-1.19.99-2.73 1.5-1.54.5-3.19.5m20.77-6.18v-3.81q-2.36.11-3.96.41-1.61.3-2.58.76-.96.46-1.38 1.08-.42.61-.42 1.34 0 1.43.85 2.05.84.61 2.21.61 1.67 0 2.89-.6 1.22-.61 2.39-1.84m-11.49-11.86-.96-1.74q3.89-3.56 9.37-3.56 1.98 0 3.54.65t2.64 1.8q1.08 1.16 1.64 2.76.56 1.61.56 3.52v14.26h-2.46q-.77 0-1.19-.23t-.66-.94l-.49-1.62q-.85.77-1.67 1.35-.81.58-1.69.98-.88.39-1.88.6t-2.21.21q-1.43 0-2.64-.38-1.21-.39-2.09-1.16t-1.37-1.91q-.48-1.15-.48-2.66 0-.86.28-1.71.29-.85.94-1.62t1.68-1.45q1.04-.68 2.54-1.19 1.51-.5 3.51-.82t4.58-.39v-1.32q0-2.26-.97-3.35t-2.79-1.09q-1.32 0-2.19.31t-1.53.69q-.66.39-1.2.69-.54.31-1.2.31-.57 0-.97-.29-.39-.3-.64-.7m55.29 10.19q.48 0 .86.37l2.33 2.53q-1.94 2.4-4.76 3.68-2.83 1.27-6.79 1.27-3.54 0-6.37-1.21t-4.83-3.36q-2-2.16-3.07-5.15-1.06-2.99-1.06-6.54 0-3.58 1.14-6.56t3.22-5.14 4.96-3.35q2.89-1.2 6.38-1.2 3.48 0 6.18 1.14 2.69 1.14 4.58 2.99l-1.98 2.75q-.17.27-.45.46-.27.2-.76.2-.33 0-.68-.18-.35-.19-.77-.47-.42-.27-.97-.6t-1.27-.61q-.73-.27-1.69-.46-.95-.19-2.21-.19-2.13 0-3.9.76t-3.05 2.2-1.98 3.52-.7 4.74q0 2.69.76 4.78.75 2.09 2.05 3.52t3.06 2.19 3.78.76q1.21 0 2.19-.14.98-.13 1.81-.41.82-.29 1.56-.74t1.46-1.11q.22-.2.46-.32.25-.12.51-.12m16.39-15.42q2.51 0 4.57.81 2.05.81 3.52 2.31 1.46 1.5 2.25 3.65.79 2.16.79 4.82 0 2.68-.79 4.84t-2.25 3.67q-1.47 1.52-3.52 2.34-2.06.81-4.57.81-2.53 0-4.6-.81-2.07-.82-3.53-2.34-1.46-1.51-2.26-3.67-.81-2.16-.81-4.84 0-2.66.81-4.82.8-2.15 2.26-3.65t3.53-2.31 4.6-.81m0 19.07q2.82 0 4.17-1.89t1.35-5.55q0-3.65-1.35-5.56-1.35-1.92-4.17-1.92-2.86 0-4.23 1.93-1.38 1.92-1.38 5.55t1.38 5.54q1.37 1.9 4.23 1.9m20.72 3.85h-5.43v-22.57h3.32q1.06 0 1.39.99l.35 1.67q.59-.66 1.24-1.21t1.39-.95q.74-.39 1.58-.62.85-.23 1.86-.23 2.14 0 3.51 1.15 1.38 1.16 2.06 3.07.53-1.12 1.32-1.93.79-.8 1.74-1.3.94-.51 2.01-.75t2.14-.24q1.87 0 3.33.57 1.45.57 2.44 1.67t1.51 2.68q.51 1.59.51 3.63v14.37h-5.43v-14.37q0-2.15-.95-3.24-.94-1.09-2.77-1.09-.84 0-1.55.29-.72.28-1.25.82-.54.54-.85 1.35-.31.82-.31 1.87v14.37h-5.46v-14.37q0-2.26-.91-3.3-.91-1.03-2.67-1.03-1.19 0-2.21.58-1.03.59-1.91 1.6zm45.43-22.57h5.44v22.57h-3.32q-1.08 0-1.37-.99l-.37-1.8q-1.39 1.4-3.06 2.27t-3.94.87q-1.85 0-3.26-.62-1.42-.63-2.39-1.78-.97-1.14-1.46-2.71-.5-1.58-.5-3.47v-14.34h5.43v14.34q0 2.07.96 3.2.96 1.14 2.87 1.14 1.41 0 2.64-.63t2.33-1.73zm15.51.99.38 1.78q.68-.68 1.44-1.26.76-.59 1.61-.99.84-.41 1.81-.64t2.11-.23q1.85 0 3.28.62 1.43.63 2.39 1.76.95 1.14 1.45 2.71.49 1.57.49 3.46v14.37h-5.43v-14.37q0-2.06-.95-3.2-.94-1.13-2.88-1.13-1.41 0-2.64.64t-2.33 1.74v16.32h-5.43v-22.57h3.32q1.05 0 1.38.99m20.29-.99h5.45v22.57h-5.45zm6.2-6.58q0 .7-.28 1.32-.29.62-.76 1.08-.48.46-1.11.74-.64.27-1.37.27-.7 0-1.33-.27-.63-.28-1.09-.74t-.73-1.08q-.28-.62-.28-1.32 0-.73.28-1.36.27-.64.73-1.1.46-.47 1.09-.74.63-.28 1.33-.28.73 0 1.37.28.63.27 1.11.74.47.46.76 1.1.28.63.28 1.36m12.32 29.5q-2.95 0-4.52-1.66t-1.57-4.59v-12.6h-2.31q-.44 0-.75-.29-.31-.28-.31-.86v-2.15l3.63-.6 1.15-6.16q.11-.44.41-.68.31-.24.8-.24h2.81v7.11h6.03v3.87h-6.03v12.23q0 1.06.52 1.65t1.42.59q.5 0 .85-.12.34-.12.59-.25t.45-.25.4-.12q.24 0 .39.12.16.12.33.36l1.63 2.64q-1.19.99-2.73 1.5-1.54.5-3.19.5m20.77-6.18v-3.81q-2.35.11-3.96.41t-2.57.76q-.97.46-1.39 1.08-.42.61-.42 1.34 0 1.43.85 2.05.85.61 2.21.61 1.67 0 2.89-.6 1.22-.61 2.39-1.84m-11.48-11.86-.97-1.74q3.89-3.56 9.37-3.56 1.98 0 3.54.65t2.64 1.8q1.08 1.16 1.64 2.76.56 1.61.56 3.52v14.26h-2.46q-.77 0-1.19-.23t-.66-.94l-.48-1.62q-.86.77-1.68 1.35-.81.58-1.69.98-.88.39-1.88.6t-2.21.21q-1.43 0-2.64-.38-1.21-.39-2.09-1.16t-1.37-1.91q-.48-1.15-.48-2.66 0-.86.29-1.71.28-.85.93-1.62t1.68-1.45q1.04-.68 2.55-1.19 1.5-.5 3.5-.82 2.01-.32 4.58-.39v-1.32q0-2.26-.97-3.35t-2.79-1.09q-1.32 0-2.19.31t-1.53.69q-.66.39-1.2.69-.54.31-1.2.31-.57 0-.97-.29-.39-.3-.63-.7m10.23-14.47h5.28l-5.44 5.74q-.42.44-.8.6-.39.17-1 .17h-3.26l3.13-5.35q.33-.57.77-.87.44-.29 1.32-.29m16.45 10.95.33 2.55q1.06-2.02 2.51-3.17 1.45-1.16 3.43-1.16 1.56 0 2.51.68l-.35 4.07q-.11.4-.32.56-.21.17-.56.17-.33 0-.98-.11t-1.27-.11q-.9 0-1.6.26-.71.27-1.27.76-.56.5-.99 1.2t-.8 1.61v13.9h-5.43v-22.57h3.19q.83 0 1.16.3.33.29.44 1.06m11.79-1.36h5.46v22.57h-5.46zm6.21-6.58q0 .7-.29 1.32-.28.62-.76 1.08-.47.46-1.11.74-.64.27-1.36.27-.71 0-1.33-.27-.63-.28-1.09-.74t-.74-1.08q-.27-.62-.27-1.32 0-.73.27-1.36.28-.64.74-1.1.46-.47 1.09-.74.62-.28 1.33-.28.72 0 1.36.28.64.27 1.11.74.48.46.76 1.1.29.63.29 1.36m16.72 23.32v-3.81q-2.36.11-3.96.41-1.61.3-2.58.76-.96.46-1.38 1.08-.42.61-.42 1.34 0 1.43.85 2.05.84.61 2.21.61 1.67 0 2.89-.6 1.22-.61 2.39-1.84m-11.49-11.86-.96-1.74q3.89-3.56 9.37-3.56 1.98 0 3.54.65t2.64 1.8q1.08 1.16 1.64 2.76.56 1.61.56 3.52v14.26h-2.46q-.77 0-1.19-.23t-.66-.94l-.49-1.62q-.85.77-1.67 1.35-.81.58-1.69.98-.88.39-1.88.6t-2.21.21q-1.43 0-2.64-.38-1.21-.39-2.09-1.16t-1.37-1.91q-.48-1.15-.48-2.66 0-.86.28-1.71.29-.85.94-1.62t1.68-1.45q1.04-.68 2.54-1.19 1.51-.5 3.51-.82t4.58-.39v-1.32q0-2.26-.97-3.35t-2.79-1.09q-1.32 0-2.19.31t-1.53.69q-.66.39-1.2.69-.54.31-1.2.31-.57 0-.97-.29-.39-.3-.64-.7"/></svg>